<?xml version="1.0" standalone="no"?>
<!DOCTYPE svg PUBLIC "-//W3C//DTD SVG 20010904//EN"
 "http://www.w3.org/TR/2001/REC-SVG-20010904/DTD/svg10.dtd">
<svg version="1.0" xmlns="http://www.w3.org/2000/svg"
 width="1024.000000pt" height="645.000000pt" viewBox="0 0 1024.000000 645.000000"
 preserveAspectRatio="xMidYMid meet">

<g transform="translate(0.000000,645.000000) scale(0.100000,-0.100000)"
fill="#000000" stroke="none">
<path d="M1475 5688 c-95 -145 -210 -305 -273 -381 -35 -44 -70 -91 -78 -105
-16 -31 -18 -100 -4 -136 l10 -26 196 0 196 0 -8 -62 c-15 -122 -15 -122 38
-128 25 -3 70 -3 100 0 l53 5 -4 93 -3 92 56 0 56 0 0 75 0 75 -56 0 -57 0 4
263 4 262 -65 22 c-104 36 -110 34 -165 -49z m55 -269 c-5 -85 -10 -173 -10
-196 l0 -43 -130 0 c-71 0 -130 3 -130 6 0 3 56 81 125 174 69 93 130 180 136
194 7 14 14 25 15 23 2 -2 -1 -73 -6 -158z"/>
<path d="M3127 5728 c-13 -18 -68 -98 -122 -178 -54 -80 -136 -192 -182 -249
l-83 -103 0 -67 c0 -39 5 -72 12 -79 8 -8 67 -12 201 -12 l189 0 -7 -94 -7
-94 54 -4 c29 -1 75 -2 102 0 l48 3 -3 92 -4 92 58 3 57 3 0 74 0 75 -61 0
-62 0 4 263 4 262 -65 22 c-88 30 -105 29 -133 -9z m33 -223 c-5 -39 -9 -127
-10 -197 l0 -128 -136 0 -135 0 22 33 c13 17 67 91 121 164 54 73 108 148 119
168 12 20 23 34 25 33 1 -2 -1 -35 -6 -73z"/>
<path d="M2201 5740 c-143 -30 -268 -161 -306 -321 -52 -224 42 -452 225 -542
60 -30 72 -32 165 -32 121 1 168 18 250 96 66 62 108 133 130 214 17 67 19
199 4 264 -29 129 -135 260 -243 300 -69 25 -162 34 -225 21z m179 -190 c78
-40 122 -120 128 -235 5 -102 -21 -179 -83 -240 -51 -52 -100 -70 -169 -61
-72 8 -123 47 -163 123 -41 80 -50 154 -30 238 42 168 179 244 317 175z"/>
<path d="M5125 5259 c-45 -40 -63 -74 -76 -146 -14 -72 6 -127 63 -179 49 -44
70 -26 -191 -160 l-196 -102 3 -79 3 -80 -41 -28 c-46 -32 -47 -38 -20 -145
11 -43 24 -130 30 -192 12 -148 22 -177 65 -207 20 -13 40 -32 45 -41 5 -10
13 -118 16 -240 l7 -222 41 -18 c23 -9 89 -34 149 -55 59 -21 107 -42 107 -46
0 -5 -21 -7 -47 -5 -125 10 -412 -39 -581 -99 -143 -51 -222 -103 -342 -224
-115 -116 -148 -169 -177 -285 l-17 -70 -11 50 c-15 66 -21 74 -55 74 -51 0
-100 -82 -100 -168 0 -76 48 -128 142 -153 33 -9 51 -21 64 -43 10 -17 35 -49
56 -72 35 -38 37 -43 28 -75 -16 -54 -12 -199 6 -253 20 -59 97 -144 160 -176
45 -23 60 -25 181 -25 l132 0 18 -38 c20 -45 76 -87 114 -87 34 0 110 32 128
53 9 12 11 31 6 67 -7 48 -8 50 -39 50 -55 0 -74 38 -33 64 34 22 89 29 110
14 15 -11 16 -18 6 -46 -25 -73 34 -107 108 -62 44 26 56 54 51 112 -10 98
-98 180 -172 159 -48 -13 -56 3 -40 78 36 179 -76 336 -266 371 -32 6 -76 6
-106 2 -47 -8 -53 -7 -82 20 l-32 28 20 32 c34 57 25 132 -22 184 -19 21 -18
21 21 57 109 99 371 177 592 177 l96 0 7 -97 c3 -54 9 -145 12 -203 l6 -106
-41 -28 c-22 -16 -41 -32 -41 -37 0 -18 19 -18 43 1 14 11 29 20 35 20 10 0
17 -66 32 -295 5 -77 14 -167 20 -200 5 -33 10 -113 10 -178 0 -98 -3 -123
-20 -154 -11 -21 -20 -45 -20 -54 0 -10 -30 -27 -92 -51 -51 -20 -131 -52
-178 -72 -139 -61 -241 -103 -312 -130 l-68 -25 -5 27 c-19 90 -32 117 -61
123 -16 4 -51 17 -78 29 -69 32 -284 92 -332 94 -28 1 -52 -7 -80 -25 -22 -15
-49 -28 -59 -30 -43 -9 -40 -30 34 -232 39 -108 78 -229 86 -268 18 -84 40
-135 63 -144 57 -23 185 -65 198 -65 9 0 69 -14 132 -32 l116 -31 47 51 c26
29 52 52 58 52 6 0 41 12 77 27 65 25 67 26 80 8 21 -29 17 -46 -8 -41 -54 12
-73 11 -73 -4 0 -10 16 -17 55 -23 46 -6 77 -23 66 -35 -2 -1 -50 4 -106 13
-57 8 -105 15 -107 15 -2 0 -3 -6 -3 -14 0 -17 18 -22 135 -36 85 -11 105 -19
105 -47 0 -18 -15 -16 -131 13 -71 18 -105 22 -112 15 -6 -6 -9 -12 -6 -14 9
-8 177 -50 214 -55 22 -2 43 -10 47 -16 15 -22 8 -36 -18 -36 -24 0 -209 45
-225 55 -3 3 -38 9 -75 15 -38 5 -86 13 -106 16 -30 5 -38 3 -38 -9 0 -11 19
-18 73 -27 167 -26 432 -101 414 -116 -3 -2 -96 12 -235 36 -118 20 -167 21
-146 0 5 -5 52 -16 104 -24 209 -33 286 -49 301 -62 8 -8 28 -14 43 -14 14 0
52 -11 84 -24 31 -13 107 -38 167 -56 148 -43 164 -48 143 -49 -21 -1 -24 -16
-5 -28 23 -14 161 -32 172 -22 13 13 -12 29 -45 29 -14 0 -42 3 -62 6 l-37 7
37 19 c33 17 45 18 117 8 44 -6 88 -13 98 -16 11 -3 17 0 17 9 0 18 -13 24
-76 32 -85 11 -94 14 -87 31 4 12 15 14 42 10 20 -3 72 -10 116 -16 44 -5 96
-14 115 -20 45 -13 50 -13 50 4 0 15 -105 43 -185 49 l-40 3 35 16 c28 13 50
15 115 8 44 -5 92 -11 108 -15 21 -6 27 -4 27 8 0 11 -13 18 -37 23 -21 3 -54
9 -73 13 l-35 7 55 17 c49 14 62 14 115 2 33 -8 71 -15 83 -15 40 0 19 24 -31
35 -25 6 -48 13 -52 16 -7 8 54 31 65 24 18 -11 121 -21 127 -12 8 14 -17 27
-57 27 -34 1 -34 1 -15 16 20 16 90 15 173 -2 25 -5 32 -3 32 9 0 17 -29 27
-80 27 -34 1 -34 1 -15 16 16 13 35 15 92 10 40 -3 77 -7 84 -8 6 -2 14 2 16
9 3 7 -8 15 -24 18 -15 4 -39 9 -53 12 l-25 5 24 9 c13 5 52 5 95 0 40 -5 75
-5 80 0 14 13 2 20 -45 26 l-42 6 28 15 c27 14 85 12 153 -5 15 -4 22 -1 22
10 0 17 -21 27 -56 27 -13 0 -24 4 -24 9 0 13 57 19 124 13 47 -4 58 -2 54 9
-3 8 -22 15 -46 17 -29 2 -42 8 -42 18 0 17 12 17 61 4 55 -15 271 -21 266 -7
-2 6 -14 14 -26 17 -12 3 -22 10 -21 15 1 10 26 11 97 4 23 -2 43 0 45 6 3 9
-12 15 -80 32 -29 7 -31 10 -20 25 12 15 19 15 83 3 89 -18 95 -18 95 -1 0 9
-16 17 -42 21 -95 15 -118 24 -118 49 l0 23 98 -23 c112 -27 135 -29 130 -11
-3 6 -52 24 -109 38 -116 28 -129 34 -129 55 0 19 8 18 139 -16 62 -16 118
-27 123 -24 13 8 -11 34 -31 34 -9 1 -72 16 -141 34 l-125 33 60 29 60 29 7
90 c7 78 -5 599 -19 841 -4 78 -4 80 21 92 21 9 34 7 79 -13 142 -65 323 -87
507 -61 422 59 628 205 712 503 17 62 22 106 22 213 1 74 -2 151 -6 170 -8 33
-6 37 41 71 38 29 52 34 66 26 13 -7 24 -6 36 2 11 6 34 11 53 11 22 0 45 9
63 24 l28 24 90 -33 c631 -231 735 -267 787 -272 64 -6 88 5 88 41 0 57 -152
143 -399 227 -80 27 -226 82 -323 122 -168 68 -178 74 -178 99 0 42 -10 58
-51 79 -22 11 -39 24 -39 30 0 5 -16 17 -35 25 -35 14 -37 19 -50 99 -11 65
-31 103 -65 120 -37 19 -216 45 -316 45 -77 0 -84 -5 -84 -56 0 -13 -6 -24
-12 -24 -15 0 -190 59 -267 89 -64 26 -98 21 -145 -20 -73 -63 -102 -200 -61
-284 22 -44 78 -78 150 -90 78 -13 205 -48 205 -55 0 -5 -36 -8 -79 -7 -75 2
-81 0 -110 -27 -16 -15 -35 -41 -41 -56 -16 -39 8 -87 72 -145 64 -58 142 -87
237 -89 77 -1 95 -12 71 -41 -10 -12 -10 -18 0 -30 16 -19 6 -114 -20 -190
-63 -182 -222 -284 -470 -301 -152 -11 -237 20 -447 159 l-123 82 0 57 c0 110
-26 135 -152 149 -104 11 -197 27 -216 38 -11 6 11 27 88 81 56 40 143 107
192 148 l90 76 -6 140 -7 141 34 22 c57 36 68 74 78 272 18 338 15 363 -48
409 l-27 20 11 123 c12 139 8 152 -51 164 -17 4 -87 22 -156 40 -69 18 -155
41 -192 50 -43 11 -68 22 -68 31 0 32 34 96 62 115 33 24 98 42 98 28 0 -5 -4
-9 -10 -9 -5 0 -16 -13 -25 -29 -42 -82 62 -125 132 -55 22 22 24 31 19 65
l-6 39 81 0 c60 0 80 3 76 13 -5 15 -236 18 -310 4 -61 -12 -109 -56 -132
-122 l-18 -51 -186 42 c-102 23 -271 66 -376 94 -104 29 -230 61 -279 71 -87
18 -90 18 -126 -1 -21 -11 -67 -30 -102 -44 -36 -13 -84 -34 -108 -46 -38 -19
-46 -20 -68 -8 -26 13 -82 83 -82 102 0 6 5 5 12 -2 19 -19 82 -14 112 9 29
23 35 63 13 93 -11 16 -24 18 -70 14 -32 -3 -57 -1 -57 4 0 22 33 69 65 94 19
14 35 30 35 35 0 19 -31 8 -65 -22z m73 -162 c9 -46 -76 -68 -99 -25 -10 18
-8 24 7 35 27 20 88 13 92 -10z m412 -122 c58 -14 177 -46 265 -70 88 -25 245
-64 349 -88 l189 -42 20 -58 c17 -52 39 -79 53 -65 2 3 -5 27 -16 53 -11 26
-19 50 -16 52 2 3 75 -14 163 -38 87 -23 170 -44 186 -46 15 -3 27 -8 27 -12
0 -3 -55 -35 -122 -71 -67 -36 -158 -92 -202 -124 -45 -33 -109 -78 -142 -101
l-62 -41 -148 48 c-391 125 -803 222 -1144 268 -85 11 -162 23 -170 26 -8 3
49 38 135 83 83 43 187 98 232 124 46 25 113 58 150 72 38 15 79 33 93 41 34
18 40 18 160 -11z m1074 -37 c25 -40 -57 -89 -91 -55 -15 14 -13 18 16 47 33
34 57 36 75 8z m-1674 -344 c284 -41 557 -100 855 -184 154 -43 309 -89 345
-102 l65 -23 6 -265 c3 -146 11 -393 18 -549 15 -317 10 -436 -17 -428 -10 3
-61 22 -115 41 -55 20 -136 45 -180 55 -45 10 -161 41 -257 69 -96 28 -247 69
-335 92 -88 23 -225 65 -305 92 -80 27 -160 55 -177 61 l-33 10 0 76 c-1 93
-26 426 -33 438 -7 12 -23 132 -48 363 -11 107 -23 217 -26 243 l-6 48 34 -5
c19 -4 113 -18 209 -32z m1856 4 c-3 -13 -6 -58 -6 -100 l0 -78 -30 0 c-19 0
-77 -25 -148 -63 -64 -35 -132 -69 -150 -77 -18 -7 -37 -21 -42 -31 -6 -10
-10 -149 -10 -328 0 -303 1 -312 21 -332 17 -17 29 -20 63 -15 l41 6 -30 -20
c-16 -11 -36 -20 -42 -20 -7 0 -13 -7 -13 -15 0 -8 4 -15 10 -15 5 0 71 30
145 66 75 36 139 63 142 60 8 -8 15 -4 -134 -81 -73 -38 -133 -72 -133 -76 0
-23 30 -13 144 47 78 41 126 61 126 52 0 -7 -54 -40 -120 -73 -66 -33 -120
-63 -120 -67 0 -20 27 -12 125 37 60 30 111 55 112 55 2 0 3 -24 2 -52 0 -53
-1 -53 -67 -109 -37 -31 -116 -91 -177 -134 -60 -43 -133 -98 -161 -121 -28
-24 -53 -44 -56 -44 -3 0 -8 138 -11 308 -4 169 -11 341 -17 382 -5 41 -9 176
-10 300 l0 225 48 29 c26 16 91 61 144 100 86 62 328 204 352 205 4 1 6 -9 2
-21z m-2122 -160 c3 -13 10 -77 16 -143 6 -66 17 -164 24 -218 9 -68 9 -96 2
-94 -20 7 -38 82 -47 197 -4 63 -15 138 -23 165 -19 60 -20 87 -4 103 18 18
27 15 32 -10z m2129 -69 c20 -5 37 -15 37 -22 -1 -13 -285 -147 -311 -147 -9
0 -23 8 -32 18 -15 16 -10 21 91 74 59 31 116 64 127 72 24 18 38 19 88 5z
m60 -175 c-1 -60 -6 -171 -11 -247 -11 -183 -3 -174 -208 -267 -61 -27 -120
-50 -132 -50 -21 0 -21 3 -16 83 15 216 33 404 42 427 7 19 32 37 88 64 44 20
111 52 149 71 39 18 75 32 80 31 6 -2 9 -46 8 -112z m-369 -13 c14 -15 15 -26
6 -67 -5 -27 -17 -145 -25 -263 -8 -118 -17 -217 -20 -220 -7 -7 -5 536 2 555
7 19 17 18 37 -5z m1072 -282 c28 -26 39 -74 30 -124 -10 -51 -80 -121 -129
-130 -53 -10 -76 14 -84 86 -6 65 23 147 66 180 32 26 83 20 117 -12z m557
-13 c105 -15 122 -29 137 -105 33 -174 -5 -347 -98 -443 -41 -43 -57 -47 -65
-17 -5 20 -11 21 -63 16 -74 -8 -168 -54 -172 -84 -3 -21 -9 -23 -67 -23 -59
0 -167 29 -179 48 -2 4 28 7 68 7 61 0 81 5 140 34 231 113 347 404 217 541
-43 46 -44 45 82 26z m-240 -110 c51 -42 56 -56 10 -33 -26 14 -190 67 -206
67 -4 0 -7 -6 -7 -14 0 -8 30 -22 77 -36 42 -12 101 -34 131 -47 l55 -24 -6
-41 c-9 -64 -14 -65 -129 -29 -57 18 -116 37 -132 42 -16 5 -31 7 -34 4 -11
-11 9 -33 35 -39 15 -3 74 -21 130 -38 l102 -31 -14 -27 -14 -27 -98 34 c-54
19 -143 45 -198 58 -55 13 -95 24 -89 24 21 2 95 74 116 114 16 33 19 52 14
98 l-5 57 107 -37 c76 -25 121 -47 155 -75z m66 100 c36 -19 89 -80 97 -112
22 -88 -33 -233 -122 -321 -70 -68 -171 -118 -239 -118 -43 0 -58 6 -103 39
-54 39 -62 60 -30 80 14 8 23 5 46 -17 59 -57 224 -43 292 24 41 42 76 112 91
185 11 54 10 64 -8 105 -13 29 -33 54 -52 65 -32 19 -49 53 -36 73 9 15 31 14
64 -3z m401 -241 c19 -22 5 -119 -25 -180 -26 -51 -72 -111 -81 -103 -2 3 9
34 25 69 30 67 51 149 51 199 0 33 11 38 30 15z m90 -80 c0 -7 -4 -17 -10 -20
-5 -3 -10 -16 -10 -28 0 -33 -46 -124 -69 -136 -32 -17 -33 -13 -8 27 34 54
57 118 57 158 0 32 2 34 20 24 11 -6 20 -17 20 -25z m218 -152 c84 -35 214
-84 290 -109 75 -24 176 -63 223 -85 83 -39 86 -42 75 -65 -6 -13 -15 -24 -19
-24 -4 0 -65 22 -135 49 -70 27 -138 52 -152 56 -14 4 -127 45 -251 91 -124
46 -231 84 -238 84 -14 0 -14 6 1 47 14 40 1 42 206 -44z m-858 47 c-20 -13
-157 -13 -165 0 -4 6 27 10 87 10 64 0 88 -3 78 -10z m-2698 -183 c-29 -30
-41 -57 -26 -57 3 0 26 18 51 40 60 53 90 54 39 1 -54 -55 -37 -74 20 -21 59
54 93 55 40 1 -26 -27 -37 -45 -32 -56 5 -14 16 -7 56 35 39 41 54 50 71 45
20 -7 19 -9 -15 -44 -20 -20 -36 -40 -36 -44 0 -17 26 -4 66 33 27 25 49 37
59 34 23 -9 18 -19 -25 -49 -37 -25 -53 -55 -31 -55 5 0 34 20 64 44 40 33 60
43 76 39 21 -5 20 -8 -19 -48 -56 -57 -34 -69 27 -16 25 23 55 41 66 41 18 0
14 -7 -22 -44 -26 -27 -40 -49 -36 -56 5 -8 23 4 56 36 40 40 51 46 61 35 10
-10 10 -15 1 -18 -7 -2 -24 -14 -38 -25 -37 -29 -17 -45 25 -19 26 15 37 17
51 8 14 -8 15 -15 7 -30 -14 -28 4 -42 25 -19 12 13 26 17 42 14 28 -5 33 -17
10 -26 -8 -3 -15 -10 -15 -16 0 -15 36 -12 50 5 13 16 80 21 80 6 0 -5 -7 -14
-15 -21 -37 -31 -6 -40 32 -10 14 11 37 20 52 20 l25 0 -22 -16 c-24 -17 -30
-44 -9 -44 8 0 22 9 31 19 34 37 92 72 110 65 15 -6 11 -13 -24 -49 -57 -58
-34 -73 24 -16 23 22 49 41 59 41 24 0 21 -8 -13 -40 -55 -51 -31 -70 26 -20
29 25 41 29 83 27 42 -2 56 3 104 36 31 22 61 37 66 35 10 -3 -71 -55 -171
-112 -36 -20 -51 -46 -26 -46 6 0 64 32 129 71 143 86 193 91 68 6 -109 -74
-119 -82 -119 -96 0 -18 20 -13 59 17 20 16 57 42 83 59 26 18 60 41 76 53 24
18 36 20 80 14 l52 -7 -73 -46 c-114 -72 -133 -88 -121 -100 7 -8 20 -4 44 14
19 14 66 44 105 67 38 24 72 46 73 50 5 11 80 10 86 -1 8 -12 -12 -27 -174
-135 -80 -53 -153 -96 -164 -96 -37 0 -232 64 -309 101 -43 21 -104 43 -135
49 -84 16 -186 48 -277 85 -44 18 -136 44 -206 58 -106 22 -357 104 -421 138
-17 9 -13 15 34 54 60 50 77 51 30 2z m2967 -14 c20 -77 20 -77 -29 -85 -25
-3 -64 -7 -87 -7 l-43 -1 0 45 c0 44 2 47 43 65 23 11 56 20 74 20 29 0 33 -4
42 -37z m-3146 -20 c-10 -25 -14 -57 -11 -95 l4 -58 -47 0 c-33 0 -49 4 -53
16 -8 22 -7 137 2 151 7 11 39 18 94 22 l27 1 -16 -37z m76 34 c-2 -1 -13 -9
-24 -17 -19 -14 -19 -14 -6 3 7 9 18 17 24 17 6 0 8 -1 6 -3z m-214 -106 l0
-89 -35 -5 c-19 -2 -41 1 -49 7 -22 17 -41 71 -41 115 0 36 3 41 28 47 15 3
32 7 37 9 6 2 21 4 35 4 25 1 25 0 25 -88z m184 -33 c1 -47 -11 -64 -23 -32
-8 22 -8 98 1 121 6 15 9 13 14 -12 4 -16 7 -51 8 -77z m-339 52 c0 -22 7 -57
15 -77 8 -19 15 -38 15 -42 0 -4 -28 -13 -62 -20 -57 -12 -63 -11 -75 5 -16
23 -33 80 -33 116 0 24 6 29 43 38 23 6 47 13 52 15 35 13 45 5 45 -35z m637
-90 c28 -10 107 -30 175 -43 71 -15 173 -45 242 -72 65 -26 162 -56 215 -67
56 -12 129 -36 176 -59 44 -21 134 -54 199 -72 94 -27 120 -39 123 -53 2 -11
7 -91 13 -179 16 -270 31 -436 46 -520 8 -44 16 -172 19 -285 6 -199 19 -385
32 -444 5 -26 4 -28 -13 -22 -10 4 -62 21 -114 38 -187 58 -606 229 -715 291
-55 31 -112 54 -181 71 -56 14 -154 46 -217 71 -64 25 -122 45 -129 45 -32 0
-38 24 -38 150 0 70 -4 151 -10 181 -5 30 -14 124 -20 209 -6 85 -13 181 -17
213 l-5 57 32 0 c27 0 31 -3 25 -17 -25 -65 -13 -103 32 -103 59 0 82 48 48
97 -9 13 -11 24 -6 28 14 8 80 10 87 2 12 -12 34 -301 33 -431 l-1 -128 -33
-29 c-59 -53 -80 -150 -42 -199 32 -43 97 -66 97 -35 0 8 -7 15 -16 15 -25 0
-74 56 -74 85 0 28 23 79 47 107 14 16 17 15 37 -8 13 -15 43 -30 77 -39 31
-8 97 -31 145 -51 133 -55 535 -196 564 -198 23 -1 25 3 32 64 5 36 11 112 16
170 l7 105 28 3 c29 4 67 -21 67 -42 0 -6 -15 -18 -33 -26 -25 -12 -32 -21
-32 -44 0 -58 67 -58 94 0 14 31 26 30 62 -5 23 -23 29 -38 29 -71 0 -55 24
-49 28 7 4 48 -30 95 -84 118 -19 8 -34 20 -34 28 0 29 -51 67 -89 67 l-36 0
3 132 c1 73 7 179 12 236 7 70 6 110 0 123 -15 27 -63 49 -121 56 -56 7 -63
24 -26 63 l22 25 5 -34 c7 -48 33 -62 62 -33 20 20 21 25 10 54 -9 25 -9 34 1
40 24 15 75 8 112 -17 20 -15 40 -24 42 -21 11 11 -8 37 -39 56 -53 32 -109
26 -208 -25 -14 -7 -35 -31 -48 -53 l-22 -40 -93 20 c-50 11 -195 57 -322 103
-126 46 -243 87 -259 91 l-28 7 7 -107 7 -107 -24 6 c-13 3 -43 0 -66 -8 -24
-9 -60 -12 -86 -10 -44 5 -45 6 -50 47 -3 22 -10 127 -16 231 -6 105 -13 211
-16 237 l-6 46 104 -40 c57 -22 126 -48 155 -58z m-807 55 c0 -14 9 -48 20
-77 11 -28 19 -53 17 -53 -16 -12 -72 -24 -75 -16 -2 6 -21 37 -43 71 l-39 61
42 19 c60 26 78 25 78 -5z m1369 -31 c87 -22 119 -34 95 -34 -30 0 -177 31
-206 43 -48 20 -59 39 -16 26 18 -5 75 -21 127 -35z m2265 -5 c3 -17 6 -46 6
-64 0 -28 -5 -35 -31 -44 -40 -14 -73 -14 -121 0 -38 10 -38 10 -38 64 0 48 3
55 23 60 31 6 76 12 118 14 33 1 37 -2 43 -30z m1224 19 c20 -20 14 -30 -15
-26 -32 4 -46 38 -16 38 11 0 24 -5 31 -12z m-4964 -72 c41 -62 44 -81 17 -96
-27 -14 -27 -14 -49 24 -11 19 -37 43 -58 54 l-37 19 39 27 c21 14 42 26 45
26 4 0 23 -24 43 -54z m1636 10 c0 -3 -4 -8 -10 -11 -5 -3 -10 -1 -10 4 0 6 5
11 10 11 6 0 10 -2 10 -4z m-1750 -51 c30 -16 70 -61 70 -79 -1 -6 -18 -23
-40 -38 -32 -22 -41 -24 -50 -13 -6 7 -36 24 -66 36 l-54 23 42 43 c46 47 56
50 98 28z m2520 -78 c0 -41 -2 -44 -54 -74 -78 -47 -144 -133 -160 -210 -6
-26 -4 -34 15 -44 l23 -12 -22 -8 c-37 -14 -25 -29 22 -29 25 0 47 -4 50 -9 6
-10 -26 -21 -61 -21 -14 0 -23 -6 -23 -15 0 -17 26 -19 84 -5 22 5 45 6 50 2
14 -8 -28 -20 -76 -21 -36 -1 -54 -13 -44 -30 3 -4 40 -3 83 4 43 7 84 10 91
8 26 -11 10 -21 -45 -28 -68 -8 -103 -21 -103 -36 0 -8 12 -10 38 -6 111 18
126 19 119 11 -5 -5 -36 -16 -69 -24 -34 -9 -63 -21 -66 -28 -5 -16 32 -15 91
3 45 13 47 13 47 -5 0 -14 -11 -22 -42 -31 -75 -20 -72 -19 -60 -31 8 -8 24
-9 57 -1 43 10 45 9 45 -13 0 -23 -8 -28 -64 -36 -11 -2 -21 -9 -24 -15 -2 -9
10 -13 41 -13 42 0 45 -2 51 -32 4 -18 9 -200 13 -403 6 -411 11 -379 -65
-408 -23 -9 -68 -38 -99 -63 l-57 -47 -12 49 c-13 53 -37 516 -29 549 3 11 -2
58 -10 105 -18 94 -27 186 -49 520 -21 301 -23 272 26 300 49 27 237 156 258
176 23 23 30 17 30 -29z m1268 28 c60 0 62 -1 61 -25 0 -14 -6 -47 -12 -75
-11 -47 -14 -50 -47 -53 -39 -3 -165 29 -162 41 1 4 9 34 19 67 16 61 17 61
47 53 17 -4 59 -8 94 -8z m-3867 -81 c28 -14 49 -27 47 -29 -2 -2 -26 3 -53
11 -28 8 -65 13 -83 10 -29 -4 -31 -3 -22 15 15 26 51 24 111 -7z m2634 -67
l35 -24 -39 -31 c-45 -36 -100 -115 -108 -154 -3 -16 -8 -28 -10 -28 -3 0 -23
14 -44 31 -46 36 -46 47 8 127 28 41 99 101 121 102 2 0 19 -11 37 -23z
m-2596 -20 c75 -50 89 -122 36 -186 -26 -30 -33 -61 -14 -61 14 0 218 -203
262 -262 21 -27 34 -54 31 -65 -4 -14 8 -24 54 -45 38 -18 81 -49 118 -88 l59
-61 53 6 c50 6 54 5 82 -25 31 -34 55 -99 46 -128 -5 -16 -54 -52 -71 -52 -4
0 -4 18 0 40 4 21 4 48 1 58 -13 40 -97 55 -159 28 -47 -19 -67 -43 -67 -79 0
-43 23 -74 60 -82 22 -5 30 -12 30 -28 0 -17 -11 -27 -46 -41 -45 -18 -46 -18
-72 1 -15 11 -36 36 -47 56 l-20 36 22 23 c26 28 44 71 35 84 -4 5 -26 22 -50
38 -23 16 -82 74 -130 130 -48 55 -103 114 -122 132 -19 17 -59 69 -90 115
-74 112 -100 129 -204 129 -145 1 -219 44 -219 128 0 41 31 117 48 117 5 0 13
-19 17 -42 18 -106 67 -152 171 -160 51 -4 70 0 107 19 83 43 113 126 70 196
-22 35 -69 68 -112 77 -50 12 -31 28 26 23 37 -3 68 -13 95 -31z m3702 7 c24
-8 68 -18 97 -22 l53 -7 -36 -73 c-21 -40 -43 -76 -50 -79 -21 -7 -129 45
-160 77 l-27 29 33 45 c18 25 36 46 39 46 4 0 27 -7 51 -16z m-2569 -4 c103
-43 421 -152 498 -169 140 -32 130 -26 130 -77 0 -39 -3 -45 -17 -40 -10 3
-56 13 -103 22 -47 8 -139 37 -205 64 -66 26 -168 62 -226 80 -107 33 -107 33
-113 69 -11 66 -8 70 36 51z m-1249 -45 c26 -10 47 -21 47 -26 0 -5 -12 -4
-26 1 -14 6 -50 10 -80 10 -30 0 -54 2 -54 5 0 2 5 15 11 29 10 22 14 23 33
12 11 -8 42 -21 69 -31z m2826 -16 l42 -32 -35 -36 c-40 -42 -86 -133 -86
-174 0 -24 -2 -26 -19 -17 -11 5 -25 16 -33 22 -7 7 -25 19 -40 27 -15 8 -29
20 -32 27 -14 36 54 150 114 190 19 13 37 24 40 24 3 0 25 -14 49 -31z m-2806
-42 c13 -9 16 -20 11 -43 -6 -30 -8 -31 -72 -37 -37 -3 -75 -9 -86 -13 -17 -6
-18 -3 -11 37 4 24 12 50 17 57 14 16 119 16 141 -1z m3657 3 c0 -15 115 -87
151 -95 l31 -7 -24 -25 c-43 -47 -108 -85 -132 -79 -37 9 -115 84 -124 119 -8
30 -6 34 37 64 50 34 61 38 61 23z m-1660 -25 c0 -8 -4 -17 -10 -20 -6 -4 -10
5 -10 20 0 15 4 24 10 20 6 -3 10 -12 10 -20z m928 -12 c26 -15 49 -28 51 -29
1 -2 -12 -21 -30 -44 -31 -38 -34 -49 -38 -121 -4 -91 2 -88 -98 -44 -51 23
-53 26 -53 62 1 49 29 111 75 162 21 22 39 41 42 41 2 0 25 -12 51 -27z
m-1700 -12 c3 -16 -1 -22 -10 -19 -7 3 -15 15 -16 27 -3 16 1 22 10 19 7 -3
15 -15 16 -27z m2310 -56 c12 -32 94 -115 113 -115 5 0 9 -4 9 -8 0 -8 -39
-25 -107 -47 -50 -15 -59 -9 -97 75 -42 96 -42 96 6 113 60 22 63 21 76 -18z
m-483 11 c33 -12 39 -18 36 -38 -2 -13 -4 -65 -5 -117 l-1 -93 -58 7 c-32 3
-65 9 -73 12 -20 7 -19 128 2 168 12 23 53 76 58 75 1 0 19 -7 41 -14z m-1815
-70 c0 -28 7 -125 15 -216 20 -226 20 -246 -5 -253 -11 -3 -20 0 -21 6 0 7 -2
84 -3 172 -2 88 -6 204 -11 258 -7 88 -6 97 9 91 12 -5 16 -19 16 -58z m772
33 c33 -13 40 -31 32 -75 -7 -40 -22 -42 -99 -15 l-50 18 -3 50 -3 51 48 -9
c26 -5 60 -14 75 -20z m-2007 11 c3 -5 -4 -12 -17 -15 -50 -12 -128 -10 -128
4 0 18 135 28 145 11z m1373 -17 c5 -36 -37 -28 -51 10 -6 15 -2 18 21 15 19
-2 28 -9 30 -25z m72 8 c0 -10 -9 -21 -20 -24 -16 -4 -20 0 -20 19 0 17 6 24
20 24 13 0 20 -7 20 -19z m1955 -30 c8 -26 29 -69 45 -94 l29 -46 -47 -10
c-126 -26 -118 -27 -141 17 -24 47 -36 111 -27 146 5 20 14 26 44 29 84 9 79
10 97 -42z m-2337 -5 c-4 -26 -48 -36 -48 -11 0 9 5 25 11 36 8 17 13 18 25 8
8 -7 14 -22 12 -33z m2166 -26 c2 -36 11 -80 20 -97 9 -18 16 -37 16 -43 0 -6
-29 -10 -74 -10 l-73 0 -7 31 c-9 49 -7 123 5 158 11 31 13 32 61 29 l49 -3 3
-65z m-1704 50 c0 -5 -5 -10 -11 -10 -5 0 -7 5 -4 10 3 6 8 10 11 10 2 0 4 -4
4 -10z m-30 -20 c0 -5 -4 -10 -10 -10 -5 0 -10 5 -10 10 0 6 5 10 10 10 6 0
10 -4 10 -10z m67 -12 c-3 -8 -6 -5 -6 6 -1 11 2 17 5 13 3 -3 4 -12 1 -19z
m-17 -8 c0 -5 -4 -10 -9 -10 -6 0 -13 5 -16 10 -3 6 1 10 9 10 9 0 16 -4 16
-10z m100 0 c0 -5 -2 -10 -4 -10 -3 0 -8 5 -11 10 -3 6 -1 10 4 10 6 0 11 -4
11 -10z m-140 -16 c0 -8 -4 -12 -10 -9 -5 3 -10 10 -10 16 0 5 5 9 10 9 6 0
10 -7 10 -16z m110 1 c0 -8 -4 -15 -10 -15 -5 0 -10 7 -10 15 0 8 5 15 10 15
6 0 10 -7 10 -15z m-30 -16 c0 -6 -4 -7 -10 -4 -5 3 -10 11 -10 16 0 6 5 7 10
4 6 -3 10 -11 10 -16z m248 -4 c20 -5 22 -10 16 -43 -8 -45 -7 -44 -28 -36
-10 4 -14 13 -11 24 3 9 -3 28 -14 41 -17 22 -22 23 -50 12 -27 -10 -31 -9
-31 7 0 15 5 16 48 9 26 -5 57 -11 70 -14z m-543 5 c-3 -5 -10 -10 -16 -10 -5
0 -9 5 -9 10 0 6 7 10 16 10 8 0 12 -4 9 -10z m190 0 c3 -5 1 -10 -4 -10 -6 0
-11 5 -11 10 0 6 2 10 4 10 3 0 8 -4 11 -10z m-1057 -15 c77 -23 157 -101 178
-172 15 -50 15 -135 2 -149 -3 -2 -29 11 -58 31 -28 19 -59 35 -67 35 -11 0
-14 6 -9 23 20 69 19 76 -12 107 -19 18 -41 30 -57 30 -26 0 -135 82 -135 101
0 14 102 10 158 -6z m1017 5 c3 -5 1 -10 -4 -10 -6 0 -11 5 -11 10 0 6 2 10 4
10 3 0 8 -4 11 -10z m115 6 c0 -3 -4 -8 -10 -11 -5 -3 -10 -1 -10 4 0 6 5 11
10 11 6 0 10 -2 10 -4z m-35 -16 c3 -5 1 -10 -4 -10 -6 0 -11 5 -11 10 0 6 2
10 4 10 3 0 8 -4 11 -10z m-215 -10 c0 -5 -4 -10 -10 -10 -5 0 -10 5 -10 10 0
6 5 10 10 10 6 0 10 -4 10 -10z m139 -24 c16 3 38 1 50 -6 17 -9 26 -9 37 1
12 10 17 9 27 -1 9 -10 9 -13 0 -17 -7 -3 -13 -12 -13 -21 0 -26 24 -86 39
-98 9 -7 10 -13 3 -18 -20 -12 -42 6 -42 36 0 61 -55 116 -106 106 -26 -5 -55
-50 -61 -96 -5 -36 -2 -45 25 -72 34 -34 59 -37 103 -14 30 15 30 15 19 -5 -6
-12 -17 -21 -26 -21 -8 0 -20 -11 -26 -25 -15 -32 -21 -32 -35 5 -6 17 -18 30
-27 30 -9 0 -27 18 -41 40 -14 22 -32 40 -41 40 -18 0 -14 24 4 26 7 1 16 2
21 3 5 0 12 11 16 24 3 12 11 32 17 44 8 17 8 26 -1 37 -7 8 -10 20 -6 26 5 8
12 4 21 -9 11 -15 22 -19 43 -15z m221 9 c0 -8 -2 -15 -4 -15 -2 0 -6 7 -10
15 -3 8 -1 15 4 15 6 0 10 -7 10 -15z m110 6 c0 -5 -6 -14 -14 -20 -11 -9 -16
-9 -21 0 -4 6 -1 15 6 20 18 11 29 11 29 0z m-165 -11 c3 -5 2 -10 -4 -10 -5
0 -13 5 -16 10 -3 6 -2 10 4 10 5 0 13 -4 16 -10z m318 -5 c4 -8 2 -17 -3 -20
-6 -4 -10 3 -10 14 0 25 6 27 13 6z m32 5 c3 -5 1 -10 -4 -10 -6 0 -11 5 -11
10 0 6 2 10 4 10 3 0 8 -4 11 -10z m-2055 -25 c-7 -8 -16 -15 -20 -15 -4 0
-10 7 -14 15 -4 11 2 15 21 15 21 0 24 -2 13 -15z m1983 0 c4 -8 2 -17 -3 -20
-6 -4 -10 3 -10 14 0 25 6 27 13 6z m139 3 c-9 -9 -15 -9 -24 0 -9 9 -7 12 12
12 19 0 21 -3 12 -12z m-2043 -7 c11 -7 8 -16 -14 -45 -22 -29 -30 -34 -41
-25 -19 16 -17 29 8 56 24 26 27 26 47 14z m1311 5 c0 -3 -4 -8 -10 -11 -5 -3
-10 -1 -10 4 0 6 5 11 10 11 6 0 10 -2 10 -4z m420 -6 c0 -5 -4 -10 -10 -10
-5 0 -10 5 -10 10 0 6 5 10 10 10 6 0 10 -4 10 -10z m270 -5 c0 -8 -7 -15 -15
-15 -16 0 -20 12 -8 23 11 12 23 8 23 -8z m-640 -5 c0 -5 -4 -10 -10 -10 -5 0
-10 5 -10 10 0 6 5 10 10 10 6 0 10 -4 10 -10z m-30 -16 c0 -8 -5 -12 -10 -9
-6 4 -8 11 -5 16 9 14 15 11 15 -7z m285 -42 c-8 -8 -26 39 -19 50 5 8 11 1
16 -17 4 -16 6 -31 3 -33z m50 48 c3 -5 1 -10 -4 -10 -6 0 -11 5 -11 10 0 6 2
10 4 10 3 0 8 -4 11 -10z m295 -5 c0 -8 -7 -15 -15 -15 -16 0 -20 12 -8 23 11
12 23 8 23 -8z m-447 -23 c37 -32 7 -112 -42 -112 -41 0 -67 76 -38 112 23 30
45 30 80 0z m527 12 c0 -8 -4 -12 -10 -9 -5 3 -10 10 -10 16 0 5 5 9 10 9 6 0
10 -7 10 -16z m-735 -3 c3 -5 1 -12 -5 -16 -5 -3 -10 1 -10 9 0 18 6 21 15 7z
m520 -1 c3 -5 2 -10 -4 -10 -5 0 -13 5 -16 10 -3 6 -2 10 4 10 5 0 13 -4 16
-10z m95 -5 c0 -8 -7 -15 -15 -15 -16 0 -20 12 -8 23 11 12 23 8 23 -8z m90
-5 c0 -11 -7 -20 -15 -20 -27 0 -18 30 13 39 1 1 2 -8 2 -19z m-300 0 c0 -5
-4 -10 -10 -10 -5 0 -10 5 -10 10 0 6 5 10 10 10 6 0 10 -4 10 -10z m-1621
-66 c38 -60 41 -70 31 -97 -23 -68 -2 -168 47 -219 33 -35 92 -38 141 -8 l33
21 59 -44 c55 -42 58 -46 44 -65 -21 -30 -73 -43 -181 -45 -85 -2 -104 1 -140
21 -111 59 -157 137 -158 267 0 104 9 144 45 194 17 22 32 41 34 41 2 0 22
-30 45 -66z m1591 56 c0 -5 -4 -10 -10 -10 -5 0 -10 5 -10 10 0 6 5 10 10 10
6 0 10 -4 10 -10z m200 2 c0 -13 -12 -22 -22 -16 -10 6 -1 24 13 24 5 0 9 -4
9 -8z m88 -14 c-6 -18 -28 -21 -28 -4 0 9 7 16 16 16 9 0 14 -5 12 -12z m-178
-19 c0 -6 -4 -7 -10 -4 -5 3 -10 11 -10 16 0 6 5 7 10 4 6 -3 10 -11 10 -16z
m50 11 c0 -5 -4 -10 -10 -10 -5 0 -10 5 -10 10 0 6 5 10 10 10 6 0 10 -4 10
-10z m90 1 c0 -5 -7 -11 -15 -15 -15 -5 -20 5 -8 17 9 10 23 9 23 -2z m90 -10
c0 -12 -20 -25 -27 -18 -7 7 6 27 18 27 5 0 9 -4 9 -9z m-275 -22 c6 -18 12
-20 41 -15 23 5 41 2 59 -10 21 -14 31 -15 50 -6 28 13 31 6 10 -22 -10 -13
-11 -24 -5 -37 6 -10 10 -32 10 -49 0 -23 5 -33 20 -37 22 -6 22 -6 14 -27 -4
-11 -14 -13 -34 -10 -22 5 -31 1 -39 -14 -6 -11 -24 -25 -41 -30 -17 -6 -30
-18 -30 -27 0 -12 -6 -15 -22 -9 -30 9 -31 9 -23 33 4 15 15 21 36 21 17 0 39
4 49 10 23 12 44 72 35 100 -20 62 -97 80 -140 34 -29 -31 -34 -94 -10 -114 9
-7 13 -15 10 -18 -11 -11 -45 33 -45 59 0 19 -6 30 -20 34 -25 8 -27 35 -2 35
9 0 30 16 45 35 22 28 26 39 17 54 -12 24 -13 31 -1 31 5 0 13 -9 16 -21z
m145 13 c0 -13 -12 -22 -22 -16 -10 6 -1 24 13 24 5 0 9 -4 9 -8z m126 -59
c-11 -11 -19 6 -11 24 8 17 8 17 12 0 3 -10 2 -21 -1 -24z m-326 17 c0 -5 -5
-10 -11 -10 -5 0 -7 5 -4 10 3 6 8 10 11 10 2 0 4 -4 4 -10z m-350 -20 c-8 -5
-17 -7 -19 -4 -3 3 1 9 9 14 8 5 17 7 19 4 3 -3 -1 -9 -9 -14z m607 -16 c-3
-3 -1 -18 4 -32 6 -17 6 -28 -1 -34 -5 -4 -8 -5 -5 -2 2 4 0 15 -6 26 -10 19
-6 48 7 48 4 0 5 -3 1 -6z m83 -18 c0 -24 -17 -28 -23 -6 -3 13 0 20 9 20 8 0
14 -6 14 -14z m-700 -16 c0 -5 -4 -10 -10 -10 -5 0 -10 5 -10 10 0 6 5 10 10
10 6 0 10 -4 10 -10z m70 -11 c0 -6 -4 -7 -10 -4 -5 3 -10 11 -10 16 0 6 5 7
10 4 6 -3 10 -11 10 -16z m-30 -4 c0 -8 -4 -15 -10 -15 -5 0 -10 7 -10 15 0 8
5 15 10 15 6 0 10 -7 10 -15z m250 11 c0 -3 -4 -8 -10 -11 -5 -3 -10 -1 -10 4
0 6 5 11 10 11 6 0 10 -2 10 -4z m219 -27 c13 -24 13 -29 -2 -53 -13 -19 -26
-26 -49 -26 -34 0 -29 15 7 22 25 4 31 40 10 58 -12 10 -21 11 -43 1 l-27 -13
20 22 c25 28 65 23 84 -11z m-510 -20 c-9 -5 -15 -4 -18 2 -2 6 3 15 10 20 9
5 15 4 18 -2 2 -6 -3 -15 -10 -20z m261 21 c0 -5 -5 -10 -11 -10 -5 0 -7 5 -4
10 3 6 8 10 11 10 2 0 4 -4 4 -10z m440 0 c0 -5 -4 -10 -10 -10 -5 0 -10 5
-10 10 0 6 5 10 10 10 6 0 10 -4 10 -10z m-30 -10 c0 -5 -5 -10 -11 -10 -5 0
-7 5 -4 10 3 6 8 10 11 10 2 0 4 -4 4 -10z m-1785 -10 c3 -5 -3 -10 -15 -10
-12 0 -18 5 -15 10 3 6 10 10 15 10 5 0 12 -4 15 -10z m1385 -15 c0 -8 -4 -15
-10 -15 -5 0 -10 7 -10 15 0 8 5 15 10 15 6 0 10 -7 10 -15z m30 5 c0 -5 -2
-10 -4 -10 -3 0 -8 5 -11 10 -3 6 -1 10 4 10 6 0 11 -4 11 -10z m-285 -12
c-11 -6 -23 -16 -27 -22 -5 -7 -8 -5 -8 6 0 17 14 26 40 27 10 0 8 -3 -5 -11z
m695 -14 c0 -8 -4 -14 -10 -14 -5 0 -10 9 -10 21 0 11 5 17 10 14 6 -3 10 -13
10 -21z m-475 6 c3 -5 -1 -10 -9 -10 -9 0 -16 5 -16 10 0 6 4 10 9 10 6 0 13
-4 16 -10z m95 -5 c0 -8 -9 -15 -20 -15 -22 0 -27 15 -7 23 21 9 27 7 27 -8z
m-1450 -17 c0 -13 -43 -6 -47 8 -2 7 6 10 22 7 14 -3 25 -10 25 -15z m1250 2
c11 -7 5 -8 -20 -4 -43 8 -51 14 -19 14 13 0 31 -5 39 -10z m523 -5 c-3 -9 -8
-14 -10 -11 -3 3 -2 9 2 15 9 16 15 13 8 -4z m-1678 -75 c-18 -29 -45 -2 -45
47 l0 25 26 -31 c14 -17 23 -35 19 -41z m1128 36 c-2 -3 -3 -15 -3 -25 0 -19
-3 -19 -37 -7 -29 10 -39 19 -41 39 l-3 25 43 -12 c24 -7 42 -16 41 -20z m67
-25 c0 -35 -2 -39 -21 -34 -15 4 -19 11 -15 27 3 11 6 27 6 34 0 6 7 12 15 12
11 0 15 -11 15 -39z m509 13 c-15 -18 -22 -13 -13 10 3 9 10 13 16 10 5 -3 4
-12 -3 -20z m-1799 6 c0 -5 -9 -10 -20 -10 -11 0 -20 5 -20 10 0 6 9 10 20 10
11 0 20 -4 20 -10z m1490 6 c0 -3 -4 -8 -10 -11 -5 -3 -10 -1 -10 4 0 6 5 11
10 11 6 0 10 -2 10 -4z m267 -38 c-16 -10 -21 -2 -13 19 6 15 9 15 16 3 6 -9
5 -17 -3 -22z m-36 -11 c-13 -13 -26 -3 -16 12 3 6 11 8 17 5 6 -4 6 -10 -1
-17z m-529 -18 c56 -17 133 -46 172 -64 71 -32 234 -88 291 -99 17 -4 56 -14
87 -24 55 -16 58 -19 58 -49 l0 -32 -66 25 c-36 13 -136 49 -223 79 -86 29
-206 74 -267 98 -60 25 -125 48 -144 52 -49 10 -54 15 -33 31 23 17 9 19 125
-17z m-1172 11 c0 -5 -4 -10 -9 -10 -6 0 -13 5 -16 10 -3 6 1 10 9 10 9 0 16
-4 16 -10z m1499 -12 c12 -15 11 -18 -3 -18 -10 0 -16 8 -16 22 0 12 1 19 3
17 1 -2 9 -12 16 -21z m247 -5 c-10 -10 -19 5 -10 18 6 11 8 11 12 0 2 -7 1
-15 -2 -18z m-386 8 c0 -12 -20 -25 -27 -18 -7 7 6 27 18 27 5 0 9 -4 9 -9z
m439 -28 c0 -25 -1 -25 -8 -8 -5 11 -7 23 -4 28 8 14 13 7 12 -20z m-379 8 c0
-5 -7 -11 -15 -15 -15 -5 -20 5 -8 17 9 10 23 9 23 -2z m140 -16 c0 -8 -4 -15
-10 -15 -5 0 -10 7 -10 15 0 8 5 15 10 15 6 0 10 -7 10 -15z m100 11 c0 -2 -7
-7 -16 -10 -8 -3 -12 -2 -9 4 6 10 25 14 25 6z m-190 -27 c0 -5 -4 -9 -10 -9
-5 0 -10 7 -10 16 0 8 5 12 10 9 6 -3 10 -10 10 -16z m-34 -16 c-2 -2 -11 0
-20 3 -14 5 -15 9 -5 15 12 7 34 -10 25 -18z m174 -7 c-14 -14 -24 0 -16 21 6
15 8 15 16 3 6 -9 5 -19 0 -24z m145 24 c-3 -5 -12 -10 -20 -10 -8 0 -17 5
-20 10 -4 6 5 10 20 10 15 0 24 -4 20 -10z m175 2 c0 -10 -22 -32 -32 -32 -13
0 -9 28 5 33 19 8 27 8 27 -1z m-405 -12 c-3 -5 -10 -10 -16 -10 -5 0 -9 5 -9
10 0 6 7 10 16 10 8 0 12 -4 9 -10z m48 -15 c4 -8 2 -17 -3 -20 -6 -4 -10 -4
-10 -1 0 2 -3 11 -6 20 -3 9 -2 16 4 16 5 0 12 -7 15 -15z m104 -1 c-3 -3 -12
-4 -19 -1 -8 3 -5 6 6 6 11 1 17 -2 13 -5z m-137 -20 c0 -8 -4 -12 -10 -9 -5
3 -10 10 -10 16 0 5 5 9 10 9 6 0 10 -7 10 -16z m240 2 c0 -16 -18 -31 -27
-22 -8 8 5 36 17 36 5 0 10 -6 10 -14z m-152 -20 c3 -12 -1 -17 -10 -14 -7 3
-15 13 -16 22 -3 12 1 17 10 14 7 -3 15 -13 16 -22z m99 -18 c-6 -4 -15 -2
-19 5 -4 6 -2 15 5 19 6 4 15 2 19 -5 4 -6 2 -15 -5 -19z m-37 2 c0 -5 -7 -10
-16 -10 -8 0 -12 5 -9 10 3 6 10 10 16 10 5 0 9 -4 9 -10z m100 -20 c0 -11 -7
-20 -15 -20 -8 0 -15 9 -15 20 0 11 7 20 15 20 8 0 15 -9 15 -20z m-50 0 c0
-5 -5 -10 -11 -10 -5 0 -7 5 -4 10 3 6 8 10 11 10 2 0 4 -4 4 -10z m-818 -134
c62 -24 142 -52 178 -61 36 -9 66 -18 67 -19 2 -2 -4 -24 -13 -50 -11 -33 -15
-65 -11 -103 5 -47 3 -54 -11 -51 -10 2 -19 18 -24 41 -26 126 -139 214 -290
225 -55 4 -68 8 -68 21 0 22 19 41 42 41 9 0 68 -20 130 -44z m-1202 -91 c123
-35 220 -72 220 -84 -1 -3 -17 -16 -37 -29 -35 -22 -39 -23 -72 -9 -20 9 -64
27 -97 41 -34 14 -92 32 -130 40 -38 8 -80 19 -94 24 l-25 9 35 22 c46 28 58
27 200 -14z m1168 -52 c47 -53 79 -110 90 -161 l10 -43 -49 -24 c-26 -14 -50
-25 -52 -25 -2 0 -7 35 -9 78 -7 100 -37 171 -92 218 l-41 36 55 -21 c35 -13
67 -34 88 -58z m35 52 c66 -31 104 -67 128 -119 24 -52 24 -78 1 -106 -20 -25
-42 -20 -42 9 0 51 -108 213 -154 231 -18 8 -18 9 -3 9 10 1 42 -10 70 -24z
m-183 -17 c53 -27 87 -81 105 -170 11 -50 7 -120 -7 -133 -6 -5 -67 -35 -72
-35 -2 0 -2 33 1 73 8 102 -14 165 -78 229 -27 27 -49 51 -49 53 0 13 61 2
100 -17z m504 -4 c0 -5 -8 -26 -17 -46 -20 -43 -8 -83 26 -94 27 -8 70 25 82
64 11 38 29 37 33 -2 3 -20 -6 -36 -36 -66 -36 -36 -45 -40 -90 -40 -47 0 -51
2 -61 31 -15 45 -14 92 5 138 14 34 19 39 37 32 12 -5 22 -12 21 -17z m-614
-24 c65 -33 110 -119 110 -209 0 -68 -9 -91 -34 -91 -36 0 -45 13 -66 94 -24
93 -49 138 -96 166 -18 12 -34 24 -34 26 0 5 60 33 73 34 4 0 25 -9 47 -20z
m-859 -85 c40 -19 78 -35 84 -35 12 0 92 -246 100 -310 10 -73 27 -143 42
-173 8 -16 12 -31 10 -34 -3 -2 -36 5 -74 16 -37 11 -90 24 -118 30 -27 5 -78
20 -113 32 -74 26 -84 40 -107 152 -8 41 -42 148 -75 237 -33 89 -60 165 -60
169 0 15 238 -49 311 -84z m1538 81 c10 -11 9 -21 -3 -44 -18 -35 -40 -46 -55
-28 -13 15 -6 42 17 69 18 21 26 21 41 3z m-752 -88 c24 -26 63 -127 63 -164
l0 -22 -56 17 c-50 14 -57 20 -68 52 -18 53 -55 108 -84 127 l-25 16 38 17
c37 17 41 16 74 -1 20 -10 46 -29 58 -42z m908 12 c35 -17 36 -19 10 -13 -48
9 -50 9 -50 -7 0 -15 17 -20 142 -40 72 -12 94 -23 76 -41 -6 -6 -46 -1 -104
11 -110 23 -152 25 -147 8 3 -7 36 -19 74 -25 38 -7 94 -18 124 -24 l55 -12
-30 -12 c-25 -11 -52 -9 -163 9 -73 12 -135 20 -137 17 -19 -19 26 -35 133
-46 34 -4 62 -10 62 -14 0 -14 -68 -31 -125 -31 -101 0 -424 57 -338 59 12 1
31 13 42 27 20 26 21 26 89 14 38 -7 86 -10 106 -6 45 9 114 74 123 116 6 35
5 34 58 10z m-1470 -27 c3 -21 15 -72 27 -113 11 -41 27 -104 35 -140 7 -36
22 -103 33 -150 l20 -84 -27 -28 c-15 -15 -29 -28 -32 -28 -13 0 -51 130 -66
221 -8 53 -31 139 -50 190 -43 115 -44 134 -7 153 45 25 60 20 67 -21z m400
-5 c30 -26 75 -93 75 -113 0 -3 -18 -5 -41 -5 -22 0 -49 -4 -59 -10 -16 -8
-23 -2 -49 46 -18 30 -38 57 -46 61 -24 9 -17 19 23 36 52 21 57 21 97 -15z
m-131 -59 c43 -51 59 -88 45 -105 -6 -8 -20 -14 -30 -14 -10 0 -21 -5 -25 -11
-4 -8 -14 2 -26 25 -10 20 -36 53 -58 74 l-40 37 33 12 c52 19 73 15 101 -18z
m1515 -36 l44 -19 -69 4 c-38 2 -70 5 -71 6 -1 1 0 12 3 23 6 24 5 24 93 -14z
m-1636 -13 c56 -49 87 -124 87 -208 0 -79 -8 -100 -41 -118 l-29 -14 6 44 c11
79 -28 198 -99 299 -10 14 -9 19 3 27 22 14 23 14 73 -30z m372 -75 c113 -31
222 -66 259 -83 l39 -17 -41 -29 -41 -28 -89 41 c-49 23 -131 50 -183 62 -125
27 -132 32 -83 57 40 21 52 21 139 -3z m610 -4 c66 -11 149 -23 185 -27 l65
-7 -40 -19 c-28 -13 -52 -17 -80 -13 -22 4 -89 13 -150 20 -60 8 -134 20 -164
26 l-54 11 39 18 c21 10 48 16 59 14 11 -2 74 -13 140 -23z m742 8 c75 -29
145 -98 161 -159 14 -58 6 -95 -23 -108 -22 -10 -24 -8 -35 36 -20 83 -103
202 -162 233 -47 25 -11 24 59 -2z m180 -9 c40 -11 74 -24 77 -28 3 -5 0 -28
-5 -52 -6 -27 -6 -60 -1 -87 9 -41 9 -43 -14 -43 -18 0 -24 6 -24 21 0 54 -26
106 -82 162 -32 32 -50 56 -40 53 9 -2 49 -14 89 -26z m-275 -6 c74 -36 158
-151 173 -236 7 -36 6 -37 -44 -62 -68 -35 -74 -34 -69 12 12 95 -56 262 -120
296 -49 27 4 18 60 -10z m584 -28 c16 -52 16 -57 0 -100 -22 -57 -63 -88 -126
-94 -42 -4 -50 -1 -64 20 -17 26 -23 109 -12 146 6 16 14 22 29 20 22 -3 23
-6 10 -71 -7 -34 20 -67 54 -67 76 0 110 78 65 148 -11 18 -12 25 -2 37 20 24
28 18 46 -39z m-671 18 c46 -22 91 -98 109 -184 22 -106 13 -139 -44 -167 -25
-12 -48 -22 -51 -23 -3 0 0 24 8 52 25 100 -13 216 -98 292 -31 28 -45 46 -37
50 18 7 77 -3 113 -20z m-825 -13 c0 -10 27 -15 213 -41 77 -10 141 -21 143
-23 3 -2 -15 -11 -38 -21 -43 -16 -77 -14 -263 16 -11 2 -23 11 -27 21 -4 9
-18 17 -30 17 -13 0 -29 4 -37 9 -11 7 -10 11 5 20 23 13 34 14 34 2z m707
-21 c42 -25 90 -92 105 -144 27 -96 4 -202 -51 -230 -16 -9 -32 -16 -35 -16
-2 0 -2 18 1 40 7 49 -20 167 -54 233 -16 32 -39 57 -68 76 l-44 28 32 16 c43
21 76 21 114 -3z m-1137 -22 c55 -12 138 -40 199 -68 l104 -47 43 -128 c24
-71 51 -172 59 -225 8 -54 22 -116 31 -139 9 -23 14 -45 10 -48 -3 -4 -75 17
-159 46 -83 29 -169 55 -190 58 -47 6 -58 27 -82 143 -9 47 -23 99 -31 116
-18 40 -114 310 -114 319 0 4 8 4 18 0 9 -4 60 -16 112 -27z m1873 -24 c0 -44
-65 -76 -79 -39 -8 20 14 73 35 85 22 12 44 -10 44 -46z m-2169 -60 l5 -49
-14 40 c-15 45 -20 117 -5 79 5 -12 11 -43 14 -70z m1284 57 c70 -36 109 -99
133 -216 10 -50 10 -69 -2 -105 -12 -38 -21 -49 -59 -67 -61 -30 -72 -29 -63
5 4 15 7 56 6 92 -1 88 -33 170 -89 228 -24 25 -43 46 -41 47 1 0 18 8 37 17
19 9 36 17 38 17 1 1 19 -8 40 -18z m-1119 -105 c-2 -2 -13 -6 -24 -10 -19 -5
-20 -2 -16 62 l4 67 19 -58 c11 -32 18 -60 17 -61z m555 75 c3 -5 13 -44 21
-86 8 -43 23 -101 34 -129 10 -28 22 -71 25 -96 4 -25 16 -86 28 -137 19 -83
20 -92 5 -107 -8 -9 -19 -25 -22 -36 -3 -11 -10 -20 -14 -20 -16 0 -53 117
-67 213 -8 53 -32 148 -54 210 -49 138 -50 151 -7 177 36 22 43 24 51 11z
m155 -14 l73 -12 -78 -31 c-78 -31 -79 -31 -86 -10 -10 36 -9 66 5 65 6 0 45
-6 86 -12z m298 -21 c41 -35 80 -111 93 -184 9 -52 8 -73 -5 -124 -8 -34 -17
-63 -18 -64 -6 -4 -101 -34 -103 -31 -1 1 1 22 6 47 17 93 -30 247 -96 313
-15 15 -25 29 -23 31 17 15 69 35 91 36 14 0 39 -11 55 -24z m-119 -101 c38
-57 65 -141 66 -211 0 -60 -30 -114 -74 -131 l-27 -10 5 73 c7 107 -23 199
-87 265 l-49 51 31 13 c56 22 62 23 82 11 11 -7 35 -34 53 -61z m-157 -15 c21
-18 50 -56 66 -88 25 -50 28 -68 28 -150 0 -86 -2 -95 -24 -113 -40 -32 -46
-25 -46 54 0 91 -26 172 -81 254 -25 38 -37 64 -30 67 26 11 51 4 87 -24z
m-16 -206 c17 -65 20 -144 6 -129 -9 10 -34 122 -46 200 -5 40 -5 40 10 13 8
-14 22 -53 30 -84z"/>
<path d="M5841 4711 c-60 -4 -86 -10 -89 -20 -4 -12 17 -13 131 -7 139 7 167
11 167 27 0 9 -66 9 -209 0z"/>
<path d="M5898 4653 c-42 -3 -58 -8 -58 -18 0 -11 13 -15 53 -14 88 2 160 13
165 27 4 12 -24 13 -160 5z"/>
<path d="M5032 4478 c-22 -18 -74 -59 -116 -91 l-76 -58 15 -29 c17 -33 47
-39 80 -16 27 18 173 93 209 106 30 11 32 28 7 93 -15 40 -66 38 -119 -5z m83
-38 c-10 -11 -20 -18 -23 -15 -7 6 18 35 31 35 5 0 2 -9 -8 -20z m-57 -19 c11
-30 10 -30 -75 -76 -59 -32 -89 -43 -96 -36 -7 7 -2 17 18 33 27 22 138 106
142 107 0 1 6 -12 11 -28z"/>
<path d="M5717 4338 c-8 -18 -12 -38 -10 -45 3 -6 37 -31 76 -54 41 -24 109
-79 156 -126 46 -45 92 -83 102 -83 53 0 119 61 119 110 0 12 -23 35 -62 61
-35 23 -95 71 -134 106 l-72 63 -81 0 -81 0 -13 -32z m120 6 c-3 -3 -12 -4
-19 -1 -8 3 -5 6 6 6 11 1 17 -2 13 -5z m-54 -26 c12 -6 67 -46 122 -87 55
-42 110 -84 123 -92 20 -15 21 -19 11 -43 l-12 -26 -81 78 c-45 43 -109 95
-143 116 -61 37 -70 46 -56 59 9 9 11 9 36 -5z m127 -8 c0 -13 -40 -13 -60 0
-11 7 -5 10 23 10 20 0 37 -4 37 -10z m35 -30 c3 -6 -5 -10 -19 -10 -14 0 -28
5 -31 10 -3 6 5 10 19 10 14 0 28 -4 31 -10z m50 -40 c8 -13 -35 -13 -55 0
-11 7 -7 10 17 10 17 0 35 -4 38 -10z m42 -48 c-10 -2 -26 -1 -35 3 -14 5 -14
8 -2 15 8 5 22 4 34 -3 19 -10 20 -11 3 -15z m68 -32 c8 -13 -35 -13 -55 0
-11 7 -7 10 17 10 17 0 35 -4 38 -10z m-8 -66 c-3 -3 -12 -4 -19 -1 -8 3 -5 6
6 6 11 1 17 -2 13 -5z"/>
<path d="M4981 4208 c-100 -68 -103 -166 -6 -216 71 -37 150 -32 180 11 19 27
19 97 1 140 -33 78 -113 108 -175 65z m107 -24 c12 -8 22 -18 22 -22 0 -4 -34
-8 -75 -10 -41 -1 -75 0 -75 3 0 10 65 45 85 45 11 0 31 -7 43 -16z m25 -63
c25 -1 27 -4 27 -45 0 -50 -19 -76 -53 -75 -12 0 -16 3 -9 6 17 7 15 42 -4 50
-25 9 -41 -14 -26 -37 11 -18 10 -20 -10 -20 -53 0 -119 68 -104 106 5 13 76
23 126 18 14 -1 37 -3 53 -3z"/>
<path d="M5756 4020 c-90 -59 -86 -188 7 -231 112 -51 217 9 217 123 0 99
-138 166 -224 108z m134 -25 c31 -16 60 -51 60 -73 0 -9 -18 -4 -57 17 -32 17
-71 35 -86 41 -16 5 -25 14 -22 20 9 15 72 12 105 -5z m-31 -74 c40 -20 75
-41 78 -48 2 -6 -3 -23 -12 -37 -33 -50 -142 -43 -184 11 -23 28 -26 58 -11
98 12 31 20 30 129 -24z"/>
<path d="M5780 3875 c-16 -19 -5 -47 17 -43 11 2 18 12 18 27 0 29 -17 37 -35
16z"/>
<path d="M5016 3662 c-9 -15 33 -72 60 -82 38 -15 120 -12 161 5 65 27 105 20
219 -40 111 -58 128 -62 198 -43 36 10 49 9 78 -5 18 -9 65 -21 103 -27 39 -6
103 -20 143 -30 86 -24 82 -24 82 -6 0 20 -112 52 -249 71 -24 3 -57 13 -74
22 -27 13 -39 14 -98 3 -57 -11 -71 -11 -95 2 -16 9 -64 34 -107 57 -91 48
-135 52 -225 22 -81 -28 -151 -11 -167 40 -7 20 -20 25 -29 11z"/>
<path d="M6725 1710 c-22 -5 -57 -16 -79 -25 l-39 -16 8 -47 c5 -26 9 -84 11
-130 1 -46 5 -86 8 -89 3 -3 21 2 40 11 19 9 42 16 53 16 10 0 29 6 43 13 24
12 24 15 26 145 3 147 8 138 -71 122z m42 -134 l-1 -105 -42 -10 c-24 -6 -47
-11 -52 -11 -5 0 -12 35 -16 78 -3 42 -7 88 -9 101 -2 19 5 26 33 37 19 7 47
13 62 13 l26 1 -1 -104z"/>
<path d="M4250 2491 c-25 -47 3 -98 129 -235 45 -48 116 -128 158 -178 76 -87
79 -89 118 -86 35 3 40 6 43 31 4 34 -18 65 -127 182 -46 50 -117 134 -157
187 -41 54 -83 102 -94 108 -29 16 -58 12 -70 -9z m76 -43 c17 -18 55 -64 86
-103 30 -38 96 -115 146 -170 101 -110 121 -140 105 -156 -16 -16 -34 -2 -93
68 -30 36 -99 115 -155 177 -110 122 -150 179 -141 201 8 22 19 19 52 -17z"/>
<path d="M5600 2335 c-20 -24 0 -50 36 -50 26 0 29 4 29 30 0 25 -4 31 -26 33
-15 2 -31 -4 -39 -13z"/>
<path d="M1784 4256 c-28 -28 -34 -42 -34 -75 0 -124 175 -150 211 -32 22 74
-27 141 -103 141 -32 0 -47 -7 -74 -34z m136 -24 c44 -55 7 -132 -64 -132 -67
0 -103 92 -53 137 41 38 85 36 117 -5z"/>
<path d="M2054 4272 c-100 -80 -11 -241 106 -192 73 30 87 140 23 190 -32 25
-99 27 -129 2z m132 -54 c29 -55 -8 -118 -69 -118 -83 0 -111 123 -35 154 42
18 84 3 104 -36z"/>
<path d="M2277 4283 c-2 -5 -3 -68 -3 -142 1 -97 5 -136 14 -139 8 -2 12 11
12 47 0 28 2 51 3 51 2 0 18 -7 36 -16 71 -35 151 17 151 99 0 44 -20 77 -57
96 -30 15 -76 14 -99 -4 -25 -19 -34 -19 -34 0 0 16 -16 21 -23 8z m153 -33
c22 -12 42 -64 33 -88 -22 -63 -94 -82 -138 -37 -50 49 -17 135 51 135 20 0
44 -4 54 -10z"/>
<path d="M2544 4265 c-22 -33 -10 -61 37 -91 30 -19 39 -31 37 -47 -3 -25 -43
-36 -61 -18 -15 15 -27 14 -27 -4 0 -21 43 -39 74 -31 60 15 57 82 -4 121 -41
26 -53 58 -24 69 8 3 24 1 35 -4 27 -15 47 -1 24 17 -30 21 -72 16 -91 -12z"/>
<path d="M2706 4111 c-10 -16 5 -42 23 -39 21 4 21 42 -1 46 -9 2 -19 -1 -22
-7z"/>
<path d="M2814 4105 c-4 -9 -2 -21 4 -27 15 -15 44 -1 40 19 -4 23 -36 29 -44
8z"/>
<path d="M2924 4105 c-7 -18 3 -35 21 -35 15 0 28 27 19 41 -8 14 -34 11 -40
-6z"/>
<path d="M2771 3821 c-6 -11 -11 -31 -11 -45 0 -13 -6 -27 -12 -29 -10 -4 -10
-7 -1 -14 8 -5 13 -43 15 -98 2 -60 7 -90 16 -93 9 -3 12 20 12 92 0 96 0 96
25 96 14 0 25 5 25 10 0 6 -11 10 -25 10 -21 0 -25 5 -25 30 0 26 4 30 26 30
34 0 27 24 -9 28 -18 2 -29 -3 -36 -17z"/>
<path d="M2530 3791 c0 -33 -4 -40 -22 -44 l-23 -4 22 -8 c21 -7 23 -14 25
-98 2 -61 7 -92 16 -95 9 -3 12 20 12 92 0 89 1 96 20 96 11 0 20 5 20 10 0 6
-9 10 -20 10 -17 0 -20 7 -20 40 0 29 -4 40 -15 40 -11 0 -15 -11 -15 -39z"/>
<path d="M3790 3780 l0 -51 -30 16 c-39 20 -68 19 -106 -4 -90 -55 -49 -201
55 -201 20 0 46 7 58 15 19 13 22 13 27 0 3 -8 10 -15 16 -15 6 0 10 52 10
145 0 122 -2 145 -15 145 -11 0 -15 -12 -15 -50z m-20 -75 c51 -54 17 -139
-56 -139 -41 0 -84 39 -84 75 0 26 26 76 42 82 34 14 75 6 98 -18z"/>
<path d="M920 3753 c-8 -3 -23 -12 -32 -21 -16 -14 -18 -13 -18 1 0 10 -7 17
-15 17 -13 0 -15 -22 -15 -140 0 -118 2 -140 15 -140 11 0 15 12 15 50 l0 51
30 -16 c81 -42 160 8 160 100 0 64 -82 122 -140 98z m87 -45 c40 -37 30 -109
-18 -134 -81 -41 -159 67 -94 131 31 32 80 33 112 3z"/>
<path d="M1154 3741 c-90 -55 -49 -201 55 -201 20 0 46 7 58 15 19 13 22 13
27 0 3 -8 10 -15 16 -15 6 0 10 40 10 105 0 87 -3 105 -15 105 -8 0 -15 -5
-15 -10 0 -6 -13 -4 -30 5 -39 20 -68 19 -106 -4z m116 -36 c17 -18 24 -36 23
-61 -1 -41 -13 -57 -53 -74 -55 -23 -121 35 -106 93 16 67 91 90 136 42z"/>
<path d="M1419 3737 c-88 -59 -46 -192 61 -192 24 0 46 8 59 19 21 19 21 19
21 -7 0 -62 -88 -90 -144 -46 -31 24 -43 20 -27 -10 17 -31 82 -47 132 -32 56
17 69 51 69 181 0 80 -3 100 -14 100 -8 0 -16 -5 -18 -12 -3 -8 -11 -7 -28 5
-33 23 -71 21 -111 -6z m118 -29 c33 -31 32 -90 -3 -117 -36 -28 -79 -27 -109
4 -73 73 37 184 112 113z"/>
<path d="M1674 3726 c-29 -29 -34 -41 -34 -81 0 -38 5 -52 29 -76 24 -23 38
-29 74 -29 47 0 97 29 97 56 0 20 -10 18 -37 -8 -45 -42 -125 -20 -135 37 -3
19 3 20 90 23 85 3 92 4 92 23 0 12 -15 36 -34 55 -26 26 -42 34 -71 34 -29 0
-45 -8 -71 -34z m124 -16 c12 -12 22 -25 22 -30 0 -6 -34 -10 -75 -10 -79 0
-88 7 -55 40 26 26 80 26 108 0z"/>
<path d="M2068 3744 c-16 -8 -28 -10 -28 -4 0 5 -7 10 -15 10 -12 0 -15 -18
-15 -105 0 -87 3 -105 15 -105 12 0 15 15 15 73 0 65 3 76 24 96 31 30 76 25
93 -9 7 -14 13 -55 13 -92 0 -39 4 -68 10 -68 6 0 10 35 10 85 0 78 -2 88 -25
110 -27 28 -57 31 -97 9z"/>
<path d="M2294 3741 c-93 -57 -52 -201 58 -201 52 0 108 51 108 99 0 44 -25
88 -60 106 -39 20 -68 19 -106 -4z m111 -36 c52 -51 16 -138 -57 -138 -39 0
-78 41 -78 84 0 40 39 79 80 79 19 0 40 -9 55 -25z"/>
<path d="M2920 3744 c-52 -37 -68 -85 -46 -138 18 -42 51 -66 94 -66 69 0 112
44 112 115 0 76 -100 131 -160 89z m109 -38 c41 -43 25 -119 -27 -133 -56 -15
-96 7 -107 57 -17 79 80 134 134 76z"/>
<path d="M3426 3739 c-21 -17 -26 -18 -26 -5 0 9 -7 16 -15 16 -12 0 -15 -18
-15 -105 0 -87 3 -105 15 -105 12 0 15 14 15 69 0 82 23 121 70 121 44 0 60
-31 60 -118 0 -55 3 -73 13 -69 8 3 11 28 10 88 -1 77 -4 86 -28 106 -33 29
-65 29 -99 2z"/>
<path d="M3131 3664 c4 -76 7 -88 28 -105 34 -28 96 -25 126 6 22 22 25 32 25
105 0 64 -3 80 -15 80 -12 0 -15 -15 -15 -78 0 -89 -8 -102 -62 -102 -48 0
-58 18 -58 109 0 58 -3 71 -16 71 -14 0 -16 -12 -13 -86z"/>
<path d="M3593 1554 c-58 -45 -34 -74 64 -77 49 -2 58 1 75 23 25 34 15 57
-30 70 -55 15 -74 12 -109 -16z m97 -30 c0 -2 -14 -4 -31 -4 -16 0 -28 4 -25
9 5 8 56 3 56 -5z"/>
<path d="M7270 1432 c-66 -34 -91 -78 -97 -170 l-5 -67 68 -30 c84 -36 160
-42 229 -18 60 22 75 46 75 126 0 62 -14 99 -52 133 -66 60 -137 69 -218 26z
m156 -38 c50 -34 63 -52 64 -87 0 -35 -29 -47 -118 -47 -156 0 -193 97 -55
145 54 20 65 18 109 -11z m-196 -160 c0 -8 -4 -12 -10 -9 -5 3 -10 10 -10 16
0 5 5 9 10 9 6 0 10 -7 10 -16z m37 -26 c-3 -8 -6 -5 -6 6 -1 11 2 17 5 13 3
-3 4 -12 1 -19z m210 -5 c-9 -10 -39 -18 -71 -21 -47 -4 -56 -2 -56 12 0 12
10 16 43 17 23 1 53 4 67 8 32 10 38 5 17 -16z m-149 -7 c3 -12 -1 -17 -10
-14 -7 3 -15 13 -16 22 -3 12 1 17 10 14 7 -3 15 -13 16 -22z"/>
<path d="M7322 1364 c-32 -22 -26 -65 9 -78 63 -22 114 30 74 74 -22 24 -53
26 -83 4z m57 -23 c19 -12 4 -31 -25 -31 -35 0 -30 34 6 39 3 0 11 -3 19 -8z"/>
<path d="M3566 1311 c-29 -4 -54 -14 -62 -25 -12 -17 -31 -143 -23 -150 13
-11 169 -12 198 -2 29 10 36 20 52 71 25 80 24 101 -3 109 -28 7 -96 6 -162
-3z m132 -53 c-6 -17 -42 -26 -110 -27 -60 -1 -76 12 -35 29 35 14 149 12 145
-2z m-23 -78 c-3 -5 -39 -9 -78 -8 -71 1 -71 1 -22 8 80 11 107 11 100 0z"/>
<path d="M7591 1000 c-24 -17 -63 -36 -85 -42 -51 -15 -56 -22 -56 -78 0 -53
6 -65 40 -75 14 -4 37 -16 52 -26 38 -28 83 -34 110 -17 13 8 39 20 59 27 20
6 43 19 52 29 12 13 37 109 37 142 0 12 -119 70 -143 70 -12 0 -42 -14 -66
-30z m112 -34 l38 -23 -45 -27 c-52 -30 -60 -31 -104 -7 l-33 17 48 31 c26 17
50 32 53 32 3 0 22 -10 43 -23z m-148 -88 c37 -18 45 -27 45 -50 0 -15 -2 -28
-5 -28 -20 0 -94 58 -98 77 -5 28 1 29 58 1z m178 -28 c-14 -14 -93 -38 -93
-29 0 5 21 22 48 39 39 24 48 27 50 14 2 -9 0 -20 -5 -24z"/>
<path d="M7043 942 c-25 -26 -36 -30 -95 -34 -45 -3 -73 -10 -86 -21 -19 -17
-21 -17 -47 7 -50 47 -99 29 -139 -51 -14 -28 -22 -33 -52 -33 -43 0 -42 -22
1 -30 17 -3 31 -14 36 -28 10 -25 9 -25 -77 -5 -23 5 -41 -11 -24 -22 6 -3 38
-12 73 -19 46 -9 63 -17 66 -31 3 -16 -2 -17 -35 -11 -97 18 -127 19 -122 5 2
-7 24 -17 47 -22 48 -9 51 -32 5 -32 -40 0 -43 -18 -5 -29 25 -7 31 -14 31
-36 0 -39 19 -58 73 -72 43 -11 52 -10 78 5 28 16 34 16 79 1 43 -14 49 -19
52 -47 3 -31 5 -32 52 -35 68 -4 95 4 106 33 6 17 17 25 32 25 13 0 43 12 67
26 38 21 49 23 72 14 56 -24 89 19 89 115 0 54 -8 65 -50 65 -13 0 -19 10 -23
46 -3 31 -13 54 -31 73 -18 19 -26 38 -26 64 0 46 -41 94 -87 103 -27 5 -37 1
-60 -24z m81 -35 c18 -13 18 -15 2 -40 -14 -20 -15 -30 -6 -46 6 -12 14 -21
19 -21 4 0 20 -11 35 -25 19 -18 26 -34 26 -63 0 -43 15 -69 44 -74 34 -6 12
-23 -29 -23 -27 0 -50 -8 -69 -23 -16 -12 -47 -25 -69 -29 -27 -4 -41 -12 -44
-24 -4 -14 -15 -19 -44 -19 -23 0 -39 5 -39 12 0 22 -33 48 -60 48 -15 0 -40
10 -55 21 -26 21 -28 21 -61 5 -29 -13 -39 -14 -57 -4 l-22 13 21 3 c18 2 22
12 27 55 4 28 16 64 27 79 24 33 17 55 -21 63 -34 8 -36 18 -9 45 l21 21 30
-26 c37 -30 57 -31 103 -4 28 16 44 19 79 14 40 -6 48 -4 78 24 38 34 48 37
73 18z m-420 -360 c13 -20 5 -30 -18 -21 -9 3 -16 15 -16 26 0 22 18 20 34 -5z
m111 13 c3 -5 25 -15 48 -21 23 -6 36 -14 29 -16 -8 -3 -31 2 -52 12 -30 13
-42 15 -59 6 -26 -14 -29 3 -3 18 22 13 29 13 37 1z m415 -1 c0 -6 -6 -9 -14
-6 -8 3 -38 -7 -67 -23 -30 -16 -61 -29 -68 -30 -24 0 0 16 41 29 20 7 42 19
48 27 15 16 60 19 60 3z m-210 -98 c0 -10 -58 -23 -71 -15 -21 13 -6 24 31 24
22 0 40 -4 40 -9z"/>
<path d="M6906 805 c-115 -41 -130 -128 -29 -171 137 -58 253 -28 253 66 0 93
-111 145 -224 105z m44 -25 c0 -5 -8 -10 -17 -10 -15 0 -16 2 -3 10 19 12 20
12 20 0z m70 1 c0 -5 -9 -7 -20 -4 -11 3 -20 7 -20 9 0 2 9 4 20 4 11 0 20 -4
20 -9z m-138 -33 c-7 -7 -12 -8 -12 -2 0 14 12 26 19 19 2 -3 -1 -11 -7 -17z
m179 -34 c39 -20 36 -53 -6 -73 -31 -15 -92 -8 -160 19 l-30 11 33 30 c27 24
41 29 83 29 27 0 64 -7 80 -16z"/>
<path d="M4022 919 c8 -24 217 -45 225 -23 4 12 -21 17 -161 29 -54 6 -67 4
-64 -6z"/>
<path d="M3936 871 c-10 -16 29 -28 140 -41 54 -7 101 -13 104 -15 3 -2 12 1
20 6 25 16 -4 26 -114 38 -55 6 -111 14 -122 17 -12 3 -25 1 -28 -5z"/>
<path d="M4526 632 c-8 -14 1 -18 54 -26 25 -4 99 -22 165 -41 190 -52 352
-88 371 -81 25 10 7 22 -51 34 -70 14 -169 39 -315 78 -148 39 -215 50 -224
36z"/>
</g>
</svg>
