<?xml version="1.0" encoding="iso-8859-1"?>
<!-- Uploaded to: SVG Repo, www.svgrepo.com, Generator: SVG Repo Mixer Tools -->
<!DOCTYPE svg PUBLIC "-//W3C//DTD SVG 1.1//EN" "http://www.w3.org/Graphics/SVG/1.1/DTD/svg11.dtd">
<svg fill="#fff" height="800px" width="800px" version="1.1" id="Capa_1" xmlns="http://www.w3.org/2000/svg" xmlns:xlink="http://www.w3.org/1999/xlink" 
	 viewBox="0 0 459.82 459.82" xml:space="preserve">
<path d="M458.648,213.641l-53.128-53.128c1.471-4.246,4.284-13.429,5.426-24.395c1.9-18.255-1.774-33.442-10.608-44.271
	c0.864-1.96,1.329-4.05,1.397-6.155l12.564-3.165l1.051,6.227c0.33,1.953,2.023,3.335,3.939,3.335c0.221,0,0.445-0.019,0.67-0.057
	l28.453-4.803c2.179-0.368,3.646-2.432,3.279-4.61l-3.325-19.699c-0.177-1.046-0.762-1.979-1.626-2.594
	c-0.865-0.614-1.939-0.859-2.984-0.685l-28.454,4.803c-1.046,0.177-1.979,0.762-2.594,1.626s-0.861,1.938-0.685,2.984l0.938,5.558
	l-12.899,3.249c-1.347-2.756-3.458-5.229-6.49-7.004c-5.664-3.316-12.913-2.987-18.188,0.918c-4.711,3.488-6.936,8.79-6.735,14.015
	l-9.028,2.275l1.955,7.758l9.301-2.344c0.703,1.21,1.554,2.356,2.589,3.392c1.378,1.378,2.946,2.443,4.613,3.234
	c2.981,6.526-0.104,19.573-3.721,29.245l-53.308-53.308c-0.75-0.75-1.768-1.172-2.829-1.172s-2.078,0.422-2.829,1.172
	L194.227,197.21l-15.745-15.745c-0.75-0.75-1.768-1.172-2.829-1.172s-2.078,0.422-2.829,1.172l-4.496,4.496l-4.283-4.284
	l13.39-13.39c1.562-1.562,1.562-4.094,0-5.656l-12.818-12.818c-1.562-1.562-4.095-1.562-5.657,0l-32.438,32.438
	c-1.562,1.562-1.562,4.095,0,5.656l12.818,12.818c0.781,0.781,1.805,1.172,2.829,1.172s2.047-0.391,2.829-1.172l13.39-13.39
	l4.283,4.284l-4.496,4.496c-1.562,1.562-1.562,4.094,0,5.656l7.371,7.371l-24.255,24.256l-2.924-2.924
	c-0.807-0.807-1.921-1.242-3.058-1.165l-16.651,0.956c-0.98,0.056-1.905,0.471-2.599,1.165l-67.491,67.49
	c-0.694,0.693-1.108,1.619-1.165,2.599l-0.955,16.651c-0.065,1.139,0.359,2.251,1.165,3.058l3.45,3.45l-19.049,19.05
	c-1.109,1.109-1.559,2.766-1.017,4.238c1.356,3.677,0.447,7.841-2.309,10.599c-2.689,2.688-6.617,3.621-10.247,2.434
	c-1.836-0.602-3.836,0.196-4.758,1.893l-9.231,16.997c-0.846,1.557-0.566,3.485,0.687,4.737l2.406,2.406l-6.374,6.374
	c-1.562,1.562-1.562,4.095,0,5.657h0c1.562,1.562,4.094,1.562,5.656,0l6.374-6.374l3.45,3.45c0.781,0.781,1.805,1.172,2.829,1.172
	s2.047-0.391,2.829-1.172l50.107-50.107l3.415,3.415c0.785,0.785,1.856,1.233,2.966,1.205c0.042-0.001,0.084-0.003,0.126-0.006
	l16.651-0.955c0.98-0.056,1.905-0.471,2.599-1.165l67.491-67.491c0.694-0.693,1.108-1.619,1.165-2.599l0.956-16.651
	c0.065-1.139-0.359-2.251-1.165-3.058l-2.924-2.924l24.255-24.256l7.371,7.371c0.75,0.75,1.768,1.172,2.829,1.172
	s2.078-0.422,2.829-1.172l14.649-14.649c1.562-1.562,1.562-4.094,0-5.656l-15.745-15.745l1.668-1.668l134.769,134.77
	c0.75,0.75,1.768,1.172,2.829,1.172s2.078-0.422,2.829-1.172l116.67-116.671C460.21,217.736,460.21,215.203,458.648,213.641z
	 M441.144,68.197l1.993,11.811l-20.565,3.471l-1.994-11.811L441.144,68.197z M142.17,192.24l-7.162-7.161l26.781-26.78l7.162,7.161
	L142.17,192.24z M19.48,387.652l-6.572-6.571l6.367-11.725c5.498,0.717,11.05-1.117,15.069-5.136
	c4.31-4.311,6.108-10.527,4.902-16.412l17.471-17.471l10.039,10.038L19.48,387.652z M158.929,276.455l-65.335,65.336l-13.34,0.766
	l-25.716-25.717l0.765-13.34l65.336-65.335l13.339-0.766l25.716,25.716L158.929,276.455z M158.039,250.145l-11.09-11.09
	l24.255-24.256l11.09,11.09L158.039,250.145z M198.151,230.432l-31.489-31.489l8.993-8.992l31.489,31.489L198.151,230.432z
	 M379.124,79.085c1.672-1.672,3.869-2.508,6.065-2.508s4.394,0.836,6.065,2.508c3.345,3.345,3.345,8.787,0,12.132
	c-3.344,3.344-8.787,3.344-12.131,0C375.78,87.872,375.78,82.429,379.124,79.085z M385.015,122.183
	c2.196-8.264,2.797-15.136,1.819-20.546c2.994-0.296,5.914-1.415,8.417-3.332c13.03,17.688,7.368,44.149,3.895,55.834
	l-18.637-18.637C381.672,132.664,383.532,127.767,385.015,122.183z M406.737,215.948l-68.112,68.112l-37.768-37.768l68.112-68.112
	L406.737,215.948z M322.4,279.149l-4.282,4.282L301.487,266.8l4.282-4.282L322.4,279.149z M328.056,284.805l7.74,7.74
	c0.75,0.75,1.768,1.172,2.829,1.172s2.078-0.422,2.829-1.172l73.769-73.77c1.562-1.562,1.562-4.095,0-5.656l-7.74-7.74l4.282-4.282
	l12.757,12.757l-87.991,87.99l-12.757-12.757L328.056,284.805z M401.826,199.723l-16.631-16.631l4.283-4.282l16.631,16.631
	L401.826,199.723z M379.538,177.435l-7.74-7.74c-0.75-0.75-1.768-1.172-2.829-1.172s-2.078,0.422-2.829,1.172l-73.769,73.77
	c-1.562,1.562-1.562,4.095,0,5.656l7.74,7.74l-4.282,4.282l-29.083-29.083l4.282-4.282l7.74,7.74c0.75,0.75,1.768,1.172,2.829,1.172
	s2.078-0.422,2.829-1.172l73.77-73.77c0.75-0.75,1.171-1.768,1.171-2.828s-0.421-2.078-1.171-2.828l-7.74-7.74l4.282-4.282
	l29.083,29.083L379.538,177.435z M349.71,158.92l-68.113,68.112l-37.768-37.768l68.112-68.111L349.71,158.92z M265.372,222.122
	l-4.282,4.282l-16.631-16.631l4.282-4.282L265.372,222.122z M344.798,142.695l-16.631-16.63l4.283-4.283l16.631,16.631
	L344.798,142.695z M322.511,120.408l-7.74-7.74c-1.563-1.563-4.095-1.562-5.657,0l-73.769,73.769c-1.562,1.562-1.562,4.095,0,5.656
	l7.74,7.74l-4.282,4.282l-20.084-20.084l87.991-87.991l20.084,20.084L322.511,120.408z M339.149,327.483l-131.941-131.94
	l5.854-5.854l120.64,120.641c0.75,0.75,1.768,1.172,2.829,1.172s2.078-0.422,2.829-1.172l93.647-93.647
	c1.562-1.562,1.562-4.095,0-5.656L312.366,90.385l5.856-5.856l131.941,131.94L339.149,327.483z"/>
</svg>